<svg width="1200" height="900" viewBox="0 0 1200 900" fill="none" xmlns="http://www.w3.org/2000/svg">
  <rect width="1200" height="900" fill="#E8E4DC"/>
  <circle cx="600" cy="450" r="248" fill="#F8F7F3"/>
  <mask id="split-mask" x="352" y="202" width="496" height="496" maskUnits="userSpaceOnUse">
    <circle cx="600" cy="450" r="248" fill="white"/>
  </mask>
  <g mask="url(#split-mask)">
    <rect x="352" y="202" width="248" height="496" fill="#FCFBF7"/>
    <rect x="600" y="202" width="248" height="496" fill="#090909"/>
  </g>
  <circle cx="500" cy="430" r="22" fill="white"/>
  <circle cx="700" cy="470" r="22" fill="#090909"/>
  <path d="M282 704C282 674.177 306.177 650 336 650H864C893.823 650 918 674.177 918 704C918 733.823 893.823 758 864 758H336C306.177 758 282 733.823 282 704Z" fill="white" fill-opacity="0.62"/>
  <text x="600" y="702" text-anchor="middle" fill="#1A1A1A" font-family="Inter, sans-serif" font-size="18" letter-spacing="4">BLACK &amp; WHITE CIRCLE</text>
  <text x="600" y="734" text-anchor="middle" fill="#5B5A56" font-family="Inter, sans-serif" font-size="12" letter-spacing="3">MIMESIS / YOUTUBE SYNC</text>
</svg>
